<?xml version="1.0" standalone="no"?>
<!DOCTYPE svg PUBLIC "-//W3C//DTD SVG 20010904//EN"
 "http://www.w3.org/TR/2001/REC-SVG-20010904/DTD/svg10.dtd">
<svg version="1.0" xmlns="http://www.w3.org/2000/svg"
 width="908.000000pt" height="632.000000pt" viewBox="0 0 908.000000 632.000000"
 preserveAspectRatio="xMidYMid meet">

<g transform="translate(0.000000,632.000000) scale(0.100000,-0.100000)"
fill="#475569" stroke="none">
<path d="M3945 5659 c-103 -12 -299 -61 -396 -98 -408 -157 -729 -476 -850
-844 l-21 -64 -71 27 c-158 60 -244 74 -457 75 -217 0 -288 -10 -466 -70 -236
-78 -430 -200 -620 -390 -106 -105 -142 -148 -186 -225 -136 -233 -195 -431
-204 -685 -7 -179 9 -296 62 -454 79 -236 218 -446 443 -671 155 -154 294
-263 483 -375 500 -299 1182 -473 1958 -500 l165 -6 -200 56 c-462 130 -872
280 -1212 445 -522 253 -838 497 -1043 803 -224 337 -246 722 -58 1034 154
255 420 443 713 504 112 23 317 25 437 4 151 -26 359 -105 490 -185 26 -17 50
-30 51 -30 2 0 2 71 -1 158 -5 175 8 279 54 423 134 426 522 757 1007 861 147
31 400 31 544 0 358 -77 642 -272 876 -602 9 -14 3 4 -14 40 -120 246 -368
493 -630 625 -96 49 -254 101 -376 125 -125 25 -356 34 -478 19z"/>
</g>
<g transform="translate(0.000000,632.000000) scale(0.100000,-0.100000)"
fill="#dc2626" stroke="none">
<path d="M4090 5325 c-245 -41 -464 -143 -655 -303 -200 -169 -360 -461 -381
-697 l-5 -60 39 92 c159 372 416 603 780 700 84 23 118 26 257 27 119 0 178
-4 229 -17 163 -41 298 -114 418 -226 227 -212 348 -550 348 -971 l0 -120 260
0 260 0 1 23 c7 95 -22 359 -52 486 -75 320 -308 674 -559 850 -154 108 -344
187 -520 216 -113 18 -314 18 -420 0z"/>
</g>
<g transform="translate(0.000000,632.000000) scale(0.100000,-0.100000)"
fill="#374151" stroke="#e5e7eb" stroke-width="2">
<path d="M8556 3515 c-37 -45 -37 -45 -13 -45 27 0 77 50 77 76 0 27 -28 14
-64 -31z"/>
<path d="M2406 3493 c5 -10 10 -93 12 -185 l3 -168 25 0 24 0 0 185 0 185 -36
0 c-31 0 -35 -3 -28 -17z"/>
<path d="M5890 3503 c-70 -27 -111 -96 -112 -188 -1 -113 62 -185 160 -185 56
0 110 23 121 52 12 32 7 33 -27 8 -38 -28 -94 -30 -129 -4 -81 59 -87 225 -11
278 45 32 114 13 130 -35 4 -12 7 -12 21 0 45 36 -6 82 -90 80 -26 0 -55 -3
-63 -6z"/>
<path d="M2587 3434 c-3 -3 -2 -17 4 -31 5 -13 9 -78 9 -144 0 -98 3 -119 15
-119 11 0 15 21 17 106 l3 105 95 -105 c52 -58 103 -106 113 -106 15 0 17 12
17 104 0 57 3 124 6 150 6 44 6 46 -17 46 l-24 0 4 -116 3 -116 -48 54 c-142
157 -179 189 -197 172z"/>
<path d="M2979 3411 c-48 -49 -35 -88 51 -148 64 -45 76 -76 35 -95 -20 -9
-37 -9 -68 -1 -51 14 -60 8 -27 -19 36 -29 115 -21 147 16 44 51 26 94 -63
151 -30 19 -57 42 -60 50 -16 41 58 61 91 25 24 -27 35 -25 35 5 0 51 -95 62
-141 16z"/>
<path d="M3164 3417 c-8 -25 0 -31 24 -18 12 6 32 11 46 11 l26 0 0 -135 0
-135 31 0 c29 0 31 2 28 38 -1 20 -1 81 0 135 l1 97 26 0 c14 0 34 -5 46 -11
24 -13 32 -7 24 18 -5 16 -18 18 -126 18 -108 0 -121 -2 -126 -18z"/>
<path d="M3480 3436 c-3 -2 -4 -70 -2 -150 l3 -146 25 0 24 0 2 135 c0 74 1
141 2 148 1 11 -45 23 -54 13z"/>
<path d="M3605 3422 c-3 -8 -5 -20 -5 -28 0 -13 3 -13 22 0 12 9 35 16 50 16
l28 0 0 -135 0 -135 31 0 c29 0 30 2 24 31 -4 16 -4 77 0 135 7 102 8 104 32
104 13 0 33 -5 45 -11 24 -13 29 -9 22 16 -5 18 -14 20 -124 20 -91 0 -121 -3
-125 -13z"/>
<path d="M3917 3338 c5 -143 10 -164 40 -188 48 -37 166 -20 192 28 5 10 13
73 17 140 l7 122 -24 0 -24 0 3 -119 4 -118 -28 -22 c-34 -27 -87 -28 -114 -1
-18 18 -20 33 -20 140 l0 120 -28 0 -29 0 4 -102z"/>
<path d="M4224 3431 c-2 -2 -4 -15 -4 -28 0 -23 1 -23 22 -9 12 9 35 16 50 16
l28 0 0 -135 0 -135 25 0 24 0 3 133 3 132 39 -1 c21 -1 42 -8 48 -15 6 -10 8
-5 6 15 l-3 29 -118 1 c-65 1 -121 -1 -123 -3z"/>
<path d="M4593 3419 c-100 -49 -111 -213 -19 -271 23 -14 43 -18 79 -15 83 7
139 69 140 155 1 59 -19 100 -62 129 -42 29 -84 29 -138 2z m100 -29 c74 -59
52 -230 -30 -230 -66 0 -100 60 -95 162 3 35 48 88 77 88 12 0 34 -9 48 -20z"/>
<path d="M5076 3433 c-37 -4 -38 -6 -32 -35 3 -17 6 -82 6 -144 l0 -114 73 0
c114 0 169 48 170 149 1 109 -76 160 -217 144z m103 -38 c54 -28 78 -123 46
-185 -19 -36 -43 -50 -89 -50 l-36 0 0 125 0 125 25 0 c15 0 39 -7 54 -15z"/>
<path d="M5452 3432 c-62 -2 -73 -5 -68 -18 3 -9 6 -74 6 -145 l0 -130 77 3
c50 2 78 7 81 16 3 9 -12 12 -52 12 l-56 0 0 49 0 50 42 3 c59 4 63 28 4 28
l-46 0 0 55 c0 53 1 55 28 55 15 0 38 -7 50 -16 21 -14 22 -14 22 10 0 14 -3
26 -7 28 -5 2 -41 2 -81 0z"/>
<path d="M6218 3423 c-19 -23 -121 -273 -114 -280 13 -13 35 9 48 49 l15 43
60 3 61 3 17 -51 c15 -44 20 -50 44 -50 l28 0 -55 150 c-57 156 -70 172 -104
133z m39 -103 l22 -60 -50 0 c-27 0 -49 2 -49 4 0 12 44 116 49 116 3 0 16
-27 28 -60z"/>
<path d="M6470 3433 l-35 -4 3 -144 3 -145 27 0 c26 0 27 1 24 55 -5 73 11 72
76 -1 41 -46 55 -55 78 -52 l28 3 -50 54 -50 53 33 33 c18 18 33 42 33 54 0
28 -18 65 -39 78 -21 13 -85 21 -131 16z m100 -43 c29 -29 27 -85 -4 -106 -14
-8 -35 -14 -48 -12 -21 3 -23 9 -26 71 l-3 67 31 0 c17 0 39 -9 50 -20z"/>
<path d="M6777 3433 c-30 -3 -37 -8 -33 -19 3 -9 6 -74 6 -146 l0 -130 86 3
c84 4 86 5 119 41 39 42 53 107 36 161 -14 42 -38 65 -88 83 -38 13 -55 14
-126 7z m103 -38 c40 -20 60 -63 60 -125 0 -44 -5 -56 -29 -81 -23 -23 -39
-29 -70 -29 l-41 0 0 125 0 125 25 0 c15 0 39 -7 55 -15z"/>
<path d="M7090 3436 c-3 -2 -4 -70 -2 -150 l3 -146 25 0 24 0 2 135 c0 74 1
141 2 148 1 11 -45 23 -54 13z"/>
<path d="M7320 3421 c-53 -28 -80 -74 -80 -138 0 -93 49 -153 124 -153 60 0
107 28 134 80 71 140 -48 281 -178 211z m104 -37 c73 -73 47 -224 -39 -224
-86 0 -128 158 -60 226 31 31 66 30 99 -2z"/>
<path d="M7610 3436 c-3 -2 -4 -70 -2 -150 l3 -146 85 0 c83 0 84 0 84 26 0
24 -1 24 -22 10 -12 -9 -40 -16 -61 -16 l-39 0 3 138 4 137 -25 3 c-14 2 -28
1 -30 -2z"/>
<path d="M7914 3426 c-106 -46 -121 -222 -24 -280 86 -50 205 19 217 126 14
119 -88 200 -193 154z m101 -46 c45 -47 48 -157 5 -200 -30 -30 -73 -26 -104
11 -32 38 -40 67 -33 127 4 34 12 53 32 69 35 31 66 29 100 -7z"/>
<path d="M8265 3426 c-71 -31 -111 -124 -85 -200 6 -19 27 -49 46 -66 37 -32
80 -38 167 -24 l37 7 0 58 c0 58 0 59 -29 59 -28 0 -28 -1 -23 -50 l5 -50 -40
0 c-71 0 -113 54 -113 145 0 88 90 138 144 80 17 -18 25 -22 34 -13 21 21 13
39 -23 54 -42 17 -80 17 -120 0z"/>
<path d="M8521 3431 c-9 -6 -10 -11 -2 -15 7 -5 11 -54 11 -142 l0 -134 28 0
27 0 0 138 c0 75 -4 143 -8 150 -9 14 -36 16 -56 3z"/>
<path d="M8776 3424 c-9 -8 -16 -17 -16 -19 0 -1 -24 -62 -54 -134 -47 -112
-52 -131 -37 -131 12 0 25 17 39 51 l21 50 57 -3 56 -3 18 -45 c14 -36 23 -46
45 -48 20 -3 26 0 23 10 -3 7 -27 75 -54 150 -51 143 -63 158 -98 122z m36
-102 c10 -26 18 -50 18 -54 0 -5 -21 -8 -46 -8 -52 0 -52 3 -19 84 19 44 23
42 47 -22z"/>
<path d="M2456 2853 c-55 -4 -58 -5 -50 -26 4 -12 9 -136 11 -274 l5 -253 56
0 57 0 -3 105 -3 105 43 0 c57 0 139 39 168 81 33 45 38 131 12 179 -38 70
-128 95 -296 83z m174 -83 c34 -36 46 -96 30 -145 -15 -44 -44 -65 -92 -65
l-38 0 0 120 0 120 36 0 c27 0 43 -7 64 -30z"/>
<path d="M2911 2851 c-10 -6 -11 -13 -2 -29 7 -13 11 -84 11 -185 0 -197 12
-251 66 -295 47 -39 110 -56 182 -49 99 8 168 56 191 130 5 18 12 123 15 235
l5 202 -44 0 c-53 0 -61 -10 -40 -49 11 -23 15 -64 15 -179 0 -82 -3 -163 -6
-181 -9 -43 -44 -77 -94 -92 -57 -17 -115 3 -147 50 -22 33 -23 42 -23 242 l0
209 -57 0 c-32 0 -64 -4 -72 -9z"/>
<path d="M4077 2853 l-68 -4 8 -37 c4 -20 8 -144 8 -275 l0 -239 115 4 c104 3
120 6 161 30 60 35 83 81 77 154 -5 60 -29 94 -80 115 l-29 12 36 37 c45 46
54 92 26 137 -36 57 -103 75 -254 66z m152 -79 c23 -29 28 -92 11 -125 -8 -14
-21 -19 -55 -19 l-45 0 0 85 0 85 34 0 c25 0 40 -7 55 -26z m-9 -209 c38 -20
60 -63 60 -118 0 -62 -35 -97 -96 -97 l-44 0 0 115 0 115 25 0 c15 0 39 -7 55
-15z"/>
<path d="M4524 2847 c-3 -8 0 -26 6 -41 6 -16 10 -125 10 -267 l0 -239 149 0
c84 0 152 4 156 10 8 13 10 79 2 87 -4 3 -19 -4 -33 -17 -20 -20 -38 -25 -96
-28 l-70 -4 4 256 4 256 -63 0 c-44 0 -65 -4 -69 -13z"/>
<path d="M5109 2846 c-124 -44 -187 -154 -177 -311 9 -140 93 -234 216 -243
202 -14 341 191 276 407 -37 126 -183 194 -315 147z m141 -85 c116 -122 77
-411 -56 -411 -30 0 -44 7 -75 40 -117 123 -78 410 56 410 31 0 45 -7 75 -39z"/>
<path d="M5927 2853 c-61 -3 -68 -6 -61 -21 5 -9 10 -133 12 -275 l3 -259 132
4 c110 3 139 7 172 25 97 51 149 143 148 263 0 116 -42 189 -135 236 -52 27
-139 35 -271 27z m197 -86 c50 -39 80 -107 84 -196 5 -92 -8 -137 -52 -180
-30 -29 -45 -35 -92 -39 -41 -3 -59 -1 -65 9 -10 16 -12 237 -2 358 l6 83 44
-5 c25 -2 57 -15 77 -30z"/>
<path d="M7224 2846 c-3 -8 -1 -23 5 -35 7 -12 11 -109 11 -265 l0 -246 150 0
150 0 10 26 c12 31 12 45 1 63 -7 11 -13 9 -29 -7 -24 -24 -70 -35 -127 -30
l-40 3 1 253 1 252 -64 0 c-46 0 -65 -4 -69 -14z"/>
<path d="M7664 2847 c-3 -8 0 -26 6 -41 5 -15 10 -104 10 -200 0 -158 2 -175
23 -216 70 -139 343 -130 402 14 8 19 16 110 20 244 l7 213 -43 -3 c-41 -3
-44 -5 -40 -28 2 -14 5 -106 8 -205 3 -168 2 -182 -17 -213 -37 -61 -133 -79
-196 -37 -50 33 -57 70 -52 288 l5 197 -64 0 c-44 0 -65 -4 -69 -13z"/>
<path d="M8304 2847 c-3 -8 0 -26 6 -41 6 -16 10 -125 10 -267 l0 -239 58 0
57 0 0 280 0 280 -63 0 c-43 0 -64 -4 -68 -13z"/>
<path d="M8671 2842 c-54 -27 -76 -64 -76 -130 0 -74 20 -102 129 -178 96 -67
114 -91 100 -132 -19 -55 -119 -64 -190 -16 -30 20 -36 22 -41 8 -20 -54 72
-110 168 -101 104 9 169 70 169 157 0 75 -29 109 -170 202 -36 24 -71 56 -79
72 -12 25 -11 31 6 55 15 20 30 27 62 29 38 3 46 -1 83 -37 22 -23 44 -41 49
-41 11 0 29 44 29 71 0 50 -166 79 -239 41z"/>
<path d="M3546 2842 c-2 -4 -1 -14 5 -22 5 -8 9 -129 9 -268 l0 -254 141 4
c126 3 142 5 155 22 27 38 19 42 -80 38 l-94 -4 -7 85 c-4 47 -4 90 -1 96 4 6
36 11 71 11 58 0 66 3 81 25 9 14 14 28 11 32 -3 3 -40 6 -81 7 -42 0 -76 4
-76 9 0 4 0 45 0 92 l0 85 54 0 c39 0 60 -6 80 -21 35 -28 51 -14 42 35 l-7
36 -149 0 c-82 0 -151 -4 -154 -8z"/>
<path d="M6476 2833 c5 -10 10 -134 12 -275 l3 -258 124 0 c140 0 175 8 175
42 0 22 -3 23 -92 23 l-93 0 -3 93 -3 92 61 0 c72 0 100 12 100 43 0 21 -3 22
-80 19 l-80 -4 0 44 c0 24 3 67 7 97 l6 53 58 -4 c38 -3 65 -11 79 -23 11 -10
23 -15 27 -12 8 8 7 63 -2 77 -4 6 -66 10 -157 10 -140 0 -150 -1 -142 -17z"/>
<path d="M690 2739 c0 -12 54 -137 96 -221 88 -174 183 -306 339 -467 452
-467 1198 -850 2225 -1144 447 -128 1148 -273 1176 -244 21 21 182 303 279
488 138 265 375 769 375 800 0 5 -127 9 -283 9 l-282 0 -44 -97 c-54 -119
-225 -460 -281 -561 l-41 -72 -247 5 c-644 15 -1031 56 -1437 155 -581 140
-1055 383 -1410 722 -184 175 -329 363 -420 544 -25 49 -45 86 -45 83z"/>
</g>
</svg>
